<?xml version="1.0" encoding="iso-8859-1"?>
<!-- Uploaded to: SVG Repo, www.svgrepo.com, Generator: SVG Repo Mixer Tools -->
<!DOCTYPE svg PUBLIC "-//W3C//DTD SVG 1.1//EN" "http://www.w3.org/Graphics/SVG/1.1/DTD/svg11.dtd">
<svg fill="#000000" height="800px" width="800px" version="1.1" id="Capa_1" xmlns="http://www.w3.org/2000/svg" xmlns:xlink="http://www.w3.org/1999/xlink" 
	 viewBox="0 0 489.565 489.565" xml:space="preserve">
<path id="XMLID_97_" d="M486.485,239.819l-181.277-89.592c-2.25-1.112-4.964-0.573-6.621,1.321
	c-1.649,1.886-1.823,4.654-0.419,6.733l26.863,39.862H46.64c-25.762,0-46.64,20.878-46.64,46.64c0,25.76,20.878,46.641,46.64,46.641
	h278.391l-26.863,39.862c-1.403,2.076-1.229,4.847,0.419,6.731c1.657,1.896,4.371,2.433,6.621,1.321l181.277-89.59
	c1.887-0.938,3.08-2.86,3.08-4.964C489.565,242.679,488.372,240.758,486.485,239.819z"/>
</svg>